# xmcd
#
# Track frame offsets:
#	150
#	16605
#	32475
#	63841
#	103505
#
# Disc length: 1751 seconds
#
# Revision: 0
# Processed by: cddbd v1.5.1PL0 Copyright (c) Steve Scherf et al.
# Submitted via: dBpowerAMP V4.0
#
DISCID=2b06d505
DTITLE=Jungle Brothers - Freakin' you
DYEAR=2000
DGENRE=dance
TTITLE0=Freakin' you (Alex Gifford radio edit)
TTITLE1=Freakin' you (Michael Moog Radio fix)
TTITLE2=Freakin' you (Caribbean sunshine remix by the Buffalo Bunch)
TTITLE3=Freakin' you (Michael Moog Monster mix)
TTITLE4=Freakin' you (Album version)
EXTD=
EXTT0=
EXTT1=
EXTT2=
EXTT3=
EXTT4=
PLAYORDER=
